<svg id="visual" viewBox="0 0 1920 1080" width="1920" height="1080" xmlns="http://www.w3.org/2000/svg" xmlns:xlink="http://www.w3.org/1999/xlink" version="1.1"><g stroke-width="1" stroke-linejoin="bevel"><path d="M982 505L988 506L994 485Z" fill="#cbc2d8" stroke="#cbc2d8"></path><path d="M994 485L938 496L982 505Z" fill="#d0c9e3" stroke="#d0c9e3"></path><path d="M994 485L971 416L938 496Z" fill="#ccc3da" stroke="#ccc3da"></path><path d="M994 429L971 416L994 485Z" fill="#cfc8e1" stroke="#cfc8e1"></path><path d="M938 496L916 574L982 505Z" fill="#cdc5dc" stroke="#cdc5dc"></path><path d="M982 505L916 574L988 506Z" fill="#d3ceea" stroke="#d3ceea"></path><path d="M916 574L1088 573L988 506Z" fill="#cdc5dc" stroke="#cdc5dc"></path><path d="M988 506L1088 573L994 485Z" fill="#cdc5dc" stroke="#cdc5dc"></path><path d="M994 485L1093 371L994 429Z" fill="#d3ceea" stroke="#d3ceea"></path><path d="M829 465L836 498L938 496Z" fill="#d5d1ef" stroke="#d5d1ef"></path><path d="M938 496L836 498L916 574Z" fill="#d2cce8" stroke="#d2cce8"></path><path d="M916 574L1089 612L1088 573Z" fill="#d4cfed" stroke="#d4cfed"></path><path d="M1089 612L1120 578L1088 573Z" fill="#cbc2d8" stroke="#cbc2d8"></path><path d="M1088 573L1093 371L994 485Z" fill="#d1cbe5" stroke="#d1cbe5"></path><path d="M971 416L829 465L938 496Z" fill="#cec6df" stroke="#cec6df"></path><path d="M1205 488L1093 371L1088 573Z" fill="#d0c9e3" stroke="#d0c9e3"></path><path d="M994 429L1093 371L971 416Z" fill="#ccc3da" stroke="#ccc3da"></path><path d="M971 416L817 432L829 465Z" fill="#d1cbe5" stroke="#d1cbe5"></path><path d="M924 657L934 660L916 574Z" fill="#cdc5dc" stroke="#cdc5dc"></path><path d="M916 574L934 660L1089 612Z" fill="#cec6df" stroke="#cec6df"></path><path d="M755 610L924 657L916 574Z" fill="#d4cfed" stroke="#d4cfed"></path><path d="M923 307L817 432L971 416Z" fill="#d1cbe5" stroke="#d1cbe5"></path><path d="M716 489L755 610L836 498Z" fill="#cfc8e1" stroke="#cfc8e1"></path><path d="M1089 612L1143 645L1120 578Z" fill="#d4cfed" stroke="#d4cfed"></path><path d="M934 660L1095 646L1089 612Z" fill="#d2cce8" stroke="#d2cce8"></path><path d="M1006 274L923 307L971 416Z" fill="#d3ceea" stroke="#d3ceea"></path><path d="M1161 675L1143 645L1095 646Z" fill="#cdc5dc" stroke="#cdc5dc"></path><path d="M1095 646L1143 645L1089 612Z" fill="#cfc8e1" stroke="#cfc8e1"></path><path d="M1120 578L1205 488L1088 573Z" fill="#cfc8e1" stroke="#cfc8e1"></path><path d="M1199 575L1205 488L1120 578Z" fill="#cec6df" stroke="#cec6df"></path><path d="M1176 245L1006 274L1093 371Z" fill="#cbc2d8" stroke="#cbc2d8"></path><path d="M1093 371L1006 274L971 416Z" fill="#cec6df" stroke="#cec6df"></path><path d="M1143 645L1199 575L1120 578Z" fill="#d1cbe5" stroke="#d1cbe5"></path><path d="M866 203L818 325L923 307Z" fill="#ccc3da" stroke="#ccc3da"></path><path d="M923 307L818 325L817 432Z" fill="#cbc2d8" stroke="#cbc2d8"></path><path d="M1129 764L1161 675L1095 646Z" fill="#ccc3da" stroke="#ccc3da"></path><path d="M1143 645L1217 608L1199 575Z" fill="#d3ceea" stroke="#d3ceea"></path><path d="M1161 675L1217 608L1143 645Z" fill="#cfc8e1" stroke="#cfc8e1"></path><path d="M1199 575L1284 492L1205 488Z" fill="#ccc3da" stroke="#ccc3da"></path><path d="M716 489L836 498L829 465Z" fill="#ccc3da" stroke="#ccc3da"></path><path d="M836 498L755 610L916 574Z" fill="#cfc8e1" stroke="#cfc8e1"></path><path d="M924 657L879 759L934 660Z" fill="#cec6df" stroke="#cec6df"></path><path d="M716 489L829 465L817 432Z" fill="#d5d1ef" stroke="#d5d1ef"></path><path d="M723 374L716 489L817 432Z" fill="#d4cfed" stroke="#d4cfed"></path><path d="M801 730L879 759L924 657Z" fill="#d4cfed" stroke="#d4cfed"></path><path d="M934 660L964 787L1095 646Z" fill="#ccc3da" stroke="#ccc3da"></path><path d="M1283 414L1226 331L1205 488Z" fill="#cfc8e1" stroke="#cfc8e1"></path><path d="M1205 488L1226 331L1093 371Z" fill="#d0c9e3" stroke="#d0c9e3"></path><path d="M818 325L723 374L817 432Z" fill="#cec6df" stroke="#cec6df"></path><path d="M879 759L964 787L934 660Z" fill="#ccc3da" stroke="#ccc3da"></path><path d="M1306 506L1284 492L1199 575Z" fill="#d5d1ef" stroke="#d5d1ef"></path><path d="M1086 106L936 200L1006 274Z" fill="#cbc2d8" stroke="#cbc2d8"></path><path d="M1006 274L936 200L923 307Z" fill="#cdc5dc" stroke="#cdc5dc"></path><path d="M818 325L778 242L723 374Z" fill="#cec6df" stroke="#cec6df"></path><path d="M755 610L801 730L924 657Z" fill="#d2cce8" stroke="#d2cce8"></path><path d="M964 787L1129 764L1095 646Z" fill="#ccc3da" stroke="#ccc3da"></path><path d="M1161 675L1268 681L1217 608Z" fill="#cfc8e1" stroke="#cfc8e1"></path><path d="M1217 608L1306 506L1199 575Z" fill="#d2cce8" stroke="#d2cce8"></path><path d="M1284 492L1283 414L1205 488Z" fill="#cdc5dc" stroke="#cdc5dc"></path><path d="M1202 206L1176 245L1257 254Z" fill="#d2cce8" stroke="#d2cce8"></path><path d="M1226 331L1176 245L1093 371Z" fill="#ccc3da" stroke="#ccc3da"></path><path d="M936 200L866 203L923 307Z" fill="#d2cce8" stroke="#d2cce8"></path><path d="M1339 586L1306 506L1217 608Z" fill="#cbc2d8" stroke="#cbc2d8"></path><path d="M1284 492L1306 506L1283 414Z" fill="#d5d1ef" stroke="#d5d1ef"></path><path d="M639 567L679 584L716 489Z" fill="#d2cce8" stroke="#d2cce8"></path><path d="M716 489L679 584L755 610Z" fill="#cdc5dc" stroke="#cdc5dc"></path><path d="M755 610L715 691L801 730Z" fill="#cbc2d8" stroke="#cbc2d8"></path><path d="M866 203L778 242L818 325Z" fill="#d4cfed" stroke="#d4cfed"></path><path d="M679 584L715 691L755 610Z" fill="#d1cbe5" stroke="#d1cbe5"></path><path d="M964 787L1075 820L1129 764Z" fill="#ccc3da" stroke="#ccc3da"></path><path d="M1216 853L1268 681L1129 764Z" fill="#cbc2d8" stroke="#cbc2d8"></path><path d="M1129 764L1268 681L1161 675Z" fill="#d4cfed" stroke="#d4cfed"></path><path d="M649 232L660 399L723 374Z" fill="#ccc3da" stroke="#ccc3da"></path><path d="M723 374L660 399L716 489Z" fill="#d0c9e3" stroke="#d0c9e3"></path><path d="M866 203L818 194L778 242Z" fill="#d2cce8" stroke="#d2cce8"></path><path d="M910 130L818 194L866 203Z" fill="#d4cfed" stroke="#d4cfed"></path><path d="M660 399L639 567L716 489Z" fill="#cbc2d8" stroke="#cbc2d8"></path><path d="M599 717L646 754L715 691Z" fill="#ccc3da" stroke="#ccc3da"></path><path d="M1257 254L1176 245L1226 331Z" fill="#d5d1ef" stroke="#d5d1ef"></path><path d="M1176 245L1145 144L1006 274Z" fill="#cec6df" stroke="#cec6df"></path><path d="M936 200L910 130L866 203Z" fill="#cbc2d8" stroke="#cbc2d8"></path><path d="M1316 234L1257 254L1372 261Z" fill="#cdc5dc" stroke="#cdc5dc"></path><path d="M1257 254L1226 331L1372 261Z" fill="#cec6df" stroke="#cec6df"></path><path d="M1268 681L1339 586L1217 608Z" fill="#cbc2d8" stroke="#cbc2d8"></path><path d="M1306 506L1399 472L1283 414Z" fill="#d0c9e3" stroke="#d0c9e3"></path><path d="M646 754L709 734L715 691Z" fill="#cbc2d8" stroke="#cbc2d8"></path><path d="M715 691L709 734L801 730Z" fill="#cec6df" stroke="#cec6df"></path><path d="M789 838L944 884L879 759Z" fill="#cdc5dc" stroke="#cdc5dc"></path><path d="M879 759L944 884L964 787Z" fill="#cbc2d8" stroke="#cbc2d8"></path><path d="M964 787L944 884L1075 820Z" fill="#d0c9e3" stroke="#d0c9e3"></path><path d="M818 194L747 216L778 242Z" fill="#d5d1ef" stroke="#d5d1ef"></path><path d="M778 242L747 216L723 374Z" fill="#cfc8e1" stroke="#cfc8e1"></path><path d="M997 50L910 130L936 200Z" fill="#cec6df" stroke="#cec6df"></path><path d="M818 194L707 120L747 216Z" fill="#cdc5dc" stroke="#cdc5dc"></path><path d="M1326 115L1145 144L1202 206Z" fill="#cec6df" stroke="#cec6df"></path><path d="M1202 206L1145 144L1176 245Z" fill="#cbc2d8" stroke="#cbc2d8"></path><path d="M789 838L879 759L801 730Z" fill="#d4cfed" stroke="#d4cfed"></path><path d="M709 734L789 838L801 730Z" fill="#ccc3da" stroke="#ccc3da"></path><path d="M1145 144L1086 106L1006 274Z" fill="#d5d1ef" stroke="#d5d1ef"></path><path d="M944 884L1076 887L1075 820Z" fill="#d2cce8" stroke="#d2cce8"></path><path d="M1179 881L1216 853L1129 764Z" fill="#d4cfed" stroke="#d4cfed"></path><path d="M571 308L595 399L660 399Z" fill="#d4cfed" stroke="#d4cfed"></path><path d="M660 399L595 399L639 567Z" fill="#d1cbe5" stroke="#d1cbe5"></path><path d="M1339 586L1399 472L1306 506Z" fill="#cdc5dc" stroke="#cdc5dc"></path><path d="M1399 472L1402 465L1283 414Z" fill="#ccc3da" stroke="#ccc3da"></path><path d="M1372 261L1226 331L1283 414Z" fill="#d4cfed" stroke="#d4cfed"></path><path d="M1257 254L1316 234L1202 206Z" fill="#d4cfed" stroke="#d4cfed"></path><path d="M1145 144L1096 83L1086 106Z" fill="#cdc5dc" stroke="#cdc5dc"></path><path d="M1061 0L1096 83L1212 0Z" fill="#cec6df" stroke="#cec6df"></path><path d="M1086 106L997 50L936 200Z" fill="#d3ceea" stroke="#d3ceea"></path><path d="M1179 881L1129 764L1075 820Z" fill="#d2cce8" stroke="#d2cce8"></path><path d="M1418 693L1421 605L1339 586Z" fill="#cfc8e1" stroke="#cfc8e1"></path><path d="M1339 586L1421 605L1399 472Z" fill="#cfc8e1" stroke="#cfc8e1"></path><path d="M645 157L649 232L747 216Z" fill="#cbc2d8" stroke="#cbc2d8"></path><path d="M747 216L649 232L723 374Z" fill="#cbc2d8" stroke="#cbc2d8"></path><path d="M599 717L715 691L679 584Z" fill="#d4cfed" stroke="#d4cfed"></path><path d="M709 734L646 754L789 838Z" fill="#cfc8e1" stroke="#cfc8e1"></path><path d="M599 717L679 584L560 652Z" fill="#cbc2d8" stroke="#cbc2d8"></path><path d="M1076 887L1179 881L1075 820Z" fill="#d0c9e3" stroke="#d0c9e3"></path><path d="M925 934L1027 932L944 884Z" fill="#d3ceea" stroke="#d3ceea"></path><path d="M944 884L1027 932L1076 887Z" fill="#d1cbe5" stroke="#d1cbe5"></path><path d="M1076 887L1113 950L1179 881Z" fill="#d4cfed" stroke="#d4cfed"></path><path d="M793 901L944 884L789 838Z" fill="#cdc5dc" stroke="#cdc5dc"></path><path d="M853 950L925 934L944 884Z" fill="#d5d1ef" stroke="#d5d1ef"></path><path d="M1096 83L997 50L1086 106Z" fill="#d5d1ef" stroke="#d5d1ef"></path><path d="M798 24L707 120L818 194Z" fill="#d4cfed" stroke="#d4cfed"></path><path d="M516 343L543 456L595 399Z" fill="#d4cfed" stroke="#d4cfed"></path><path d="M595 399L543 456L639 567Z" fill="#cdc5dc" stroke="#cdc5dc"></path><path d="M560 652L679 584L639 567Z" fill="#d5d1ef" stroke="#d5d1ef"></path><path d="M1386 728L1339 586L1268 681Z" fill="#ccc3da" stroke="#ccc3da"></path><path d="M1399 472L1525 482L1402 465Z" fill="#d0c9e3" stroke="#d0c9e3"></path><path d="M1466 368L1372 261L1283 414Z" fill="#d5d1ef" stroke="#d5d1ef"></path><path d="M1231 20L1096 83L1145 144Z" fill="#cfc8e1" stroke="#cfc8e1"></path><path d="M700 915L789 838L646 754Z" fill="#d0c9e3" stroke="#d0c9e3"></path><path d="M700 915L793 901L789 838Z" fill="#d4cfed" stroke="#d4cfed"></path><path d="M513 612L560 652L639 567Z" fill="#d2cce8" stroke="#d2cce8"></path><path d="M649 232L571 308L660 399Z" fill="#d2cce8" stroke="#d2cce8"></path><path d="M997 50L928 42L910 130Z" fill="#d4cfed" stroke="#d4cfed"></path><path d="M1304 848L1268 681L1216 853Z" fill="#cec6df" stroke="#cec6df"></path><path d="M1304 848L1386 728L1268 681Z" fill="#d0c9e3" stroke="#d0c9e3"></path><path d="M798 24L818 194L910 130Z" fill="#cdc5dc" stroke="#cdc5dc"></path><path d="M649 232L535 209L571 308Z" fill="#d5d1ef" stroke="#d5d1ef"></path><path d="M1027 932L1113 950L1076 887Z" fill="#ccc3da" stroke="#ccc3da"></path><path d="M1302 921L1304 848L1216 853Z" fill="#d2cce8" stroke="#d2cce8"></path><path d="M1011 1080L1113 950L1027 932Z" fill="#ccc3da" stroke="#ccc3da"></path><path d="M539 792L608 780L599 717Z" fill="#d1cbe5" stroke="#d1cbe5"></path><path d="M599 717L608 780L646 754Z" fill="#d1cbe5" stroke="#d1cbe5"></path><path d="M1386 728L1418 693L1339 586Z" fill="#cfc8e1" stroke="#cfc8e1"></path><path d="M793 901L853 950L944 884Z" fill="#cfc8e1" stroke="#cfc8e1"></path><path d="M925 934L956 1008L1027 932Z" fill="#d3ceea" stroke="#d3ceea"></path><path d="M688 940L853 950L793 901Z" fill="#cdc5dc" stroke="#cdc5dc"></path><path d="M1302 921L1216 853L1179 881Z" fill="#d1cbe5" stroke="#d1cbe5"></path><path d="M1497 866L1556 702L1418 693Z" fill="#d2cce8" stroke="#d2cce8"></path><path d="M707 120L645 157L747 216Z" fill="#d0c9e3" stroke="#d0c9e3"></path><path d="M1556 702L1469 569L1421 605Z" fill="#d2cce8" stroke="#d2cce8"></path><path d="M1421 605L1469 569L1399 472Z" fill="#d5d1ef" stroke="#d5d1ef"></path><path d="M1402 465L1466 368L1283 414Z" fill="#cdc5dc" stroke="#cdc5dc"></path><path d="M441 470L513 612L543 456Z" fill="#d1cbe5" stroke="#d1cbe5"></path><path d="M543 456L513 612L639 567Z" fill="#cbc2d8" stroke="#cbc2d8"></path><path d="M560 652L504 672L599 717Z" fill="#ccc3da" stroke="#ccc3da"></path><path d="M535 209L516 343L571 308Z" fill="#d3ceea" stroke="#d3ceea"></path><path d="M571 308L516 343L595 399Z" fill="#cfc8e1" stroke="#cfc8e1"></path><path d="M1496 375L1466 368L1402 465Z" fill="#d4cfed" stroke="#d4cfed"></path><path d="M1466 368L1444 296L1372 261Z" fill="#cdc5dc" stroke="#cdc5dc"></path><path d="M1326 115L1202 206L1316 234Z" fill="#cfc8e1" stroke="#cfc8e1"></path><path d="M1096 83L1061 0L997 50Z" fill="#cbc2d8" stroke="#cbc2d8"></path><path d="M997 50L893 0L928 42Z" fill="#d3ceea" stroke="#d3ceea"></path><path d="M1326 115L1316 234L1372 261Z" fill="#cec6df" stroke="#cec6df"></path><path d="M1061 0L893 0L997 50Z" fill="#d4cfed" stroke="#d4cfed"></path><path d="M928 42L798 24L910 130Z" fill="#d2cce8" stroke="#d2cce8"></path><path d="M548 154L560 159L632 0Z" fill="#d1cbe5" stroke="#d1cbe5"></path><path d="M829 0L798 24L928 42Z" fill="#cec6df" stroke="#cec6df"></path><path d="M1507 178L1326 115L1372 261Z" fill="#cec6df" stroke="#cec6df"></path><path d="M608 780L700 915L646 754Z" fill="#cec6df" stroke="#cec6df"></path><path d="M513 612L504 672L560 652Z" fill="#cdc5dc" stroke="#cdc5dc"></path><path d="M646 936L688 940L700 915Z" fill="#ccc3da" stroke="#ccc3da"></path><path d="M431 639L504 672L513 612Z" fill="#d4cfed" stroke="#d4cfed"></path><path d="M994 1080L956 1008L843 1080Z" fill="#d1cbe5" stroke="#d1cbe5"></path><path d="M853 950L956 1008L925 934Z" fill="#d3ceea" stroke="#d3ceea"></path><path d="M893 0L829 0L928 42Z" fill="#d3ceea" stroke="#d3ceea"></path><path d="M1466 368L1530 325L1444 296Z" fill="#cfc8e1" stroke="#cfc8e1"></path><path d="M1444 296L1507 178L1372 261Z" fill="#d2cce8" stroke="#d2cce8"></path><path d="M1525 482L1496 375L1402 465Z" fill="#d3ceea" stroke="#d3ceea"></path><path d="M829 0L804 0L798 24Z" fill="#ccc3da" stroke="#ccc3da"></path><path d="M798 24L632 0L707 120Z" fill="#cec6df" stroke="#cec6df"></path><path d="M1195 1025L1302 921L1179 881Z" fill="#cbc2d8" stroke="#cbc2d8"></path><path d="M1304 848L1372 889L1386 728Z" fill="#d3ceea" stroke="#d3ceea"></path><path d="M1195 1025L1179 881L1113 950Z" fill="#d4cfed" stroke="#d4cfed"></path><path d="M1326 115L1231 20L1145 144Z" fill="#cdc5dc" stroke="#cdc5dc"></path><path d="M560 159L535 209L649 232Z" fill="#cfc8e1" stroke="#cfc8e1"></path><path d="M560 159L649 232L645 157Z" fill="#d2cce8" stroke="#d2cce8"></path><path d="M646 936L700 915L595 899Z" fill="#cfc8e1" stroke="#cfc8e1"></path><path d="M700 915L688 940L793 901Z" fill="#d5d1ef" stroke="#d5d1ef"></path><path d="M504 672L539 792L599 717Z" fill="#cdc5dc" stroke="#cdc5dc"></path><path d="M1581 558L1525 482L1469 569Z" fill="#d5d1ef" stroke="#d5d1ef"></path><path d="M1469 569L1525 482L1399 472Z" fill="#d1cbe5" stroke="#d1cbe5"></path><path d="M560 159L645 157L632 0Z" fill="#d5d1ef" stroke="#d5d1ef"></path><path d="M1250 0L1212 0L1231 20Z" fill="#d5d1ef" stroke="#d5d1ef"></path><path d="M1231 20L1212 0L1096 83Z" fill="#d0c9e3" stroke="#d0c9e3"></path><path d="M358 472L441 470L322 407Z" fill="#d5d1ef" stroke="#d5d1ef"></path><path d="M516 343L441 470L543 456Z" fill="#ccc3da" stroke="#ccc3da"></path><path d="M495 857L539 838L539 792Z" fill="#d2cce8" stroke="#d2cce8"></path><path d="M1302 921L1372 889L1304 848Z" fill="#d0c9e3" stroke="#d0c9e3"></path><path d="M1556 702L1581 558L1469 569Z" fill="#cfc8e1" stroke="#cfc8e1"></path><path d="M560 159L548 154L535 209Z" fill="#d2cce8" stroke="#d2cce8"></path><path d="M315 403L322 407L321 348Z" fill="#d0c9e3" stroke="#d0c9e3"></path><path d="M632 0L645 157L707 120Z" fill="#d0c9e3" stroke="#d0c9e3"></path><path d="M595 899L700 915L608 780Z" fill="#cbc2d8" stroke="#cbc2d8"></path><path d="M843 1080L956 1008L853 950Z" fill="#d4cfed" stroke="#d4cfed"></path><path d="M1270 0L1250 0L1231 20Z" fill="#d2cce8" stroke="#d2cce8"></path><path d="M539 838L595 899L608 780Z" fill="#d5d1ef" stroke="#d5d1ef"></path><path d="M455 829L539 792L401 777Z" fill="#cec6df" stroke="#cec6df"></path><path d="M539 792L539 838L608 780Z" fill="#cfc8e1" stroke="#cfc8e1"></path><path d="M1602 386L1530 325L1496 375Z" fill="#cec6df" stroke="#cec6df"></path><path d="M1496 375L1530 325L1466 368Z" fill="#cdc5dc" stroke="#cdc5dc"></path><path d="M1326 115L1270 0L1231 20Z" fill="#cfc8e1" stroke="#cfc8e1"></path><path d="M1414 16L1270 0L1326 115Z" fill="#d1cbe5" stroke="#d1cbe5"></path><path d="M1011 1080L1195 1025L1113 950Z" fill="#d0c9e3" stroke="#d0c9e3"></path><path d="M1302 921L1391 904L1372 889Z" fill="#d3ceea" stroke="#d3ceea"></path><path d="M441 470L431 639L513 612Z" fill="#ccc3da" stroke="#ccc3da"></path><path d="M1353 1058L1391 904L1302 921Z" fill="#d3ceea" stroke="#d3ceea"></path><path d="M1372 889L1497 866L1386 728Z" fill="#d3ceea" stroke="#d3ceea"></path><path d="M843 1080L853 950L842 1080Z" fill="#d2cce8" stroke="#d2cce8"></path><path d="M956 1008L1011 1080L1027 932Z" fill="#d5d1ef" stroke="#d5d1ef"></path><path d="M994 1080L1011 1080L956 1008Z" fill="#cec6df" stroke="#cec6df"></path><path d="M540 0L507 149L548 154Z" fill="#d1cbe5" stroke="#d1cbe5"></path><path d="M548 154L507 149L535 209Z" fill="#d1cbe5" stroke="#d1cbe5"></path><path d="M1556 702L1421 605L1418 693Z" fill="#d4cfed" stroke="#d4cfed"></path><path d="M1525 482L1602 386L1496 375Z" fill="#d4cfed" stroke="#d4cfed"></path><path d="M842 1080L688 940L675 1080Z" fill="#cbc2d8" stroke="#cbc2d8"></path><path d="M842 1080L853 950L688 940Z" fill="#d4cfed" stroke="#d4cfed"></path><path d="M620 979L688 940L646 936Z" fill="#cbc2d8" stroke="#cbc2d8"></path><path d="M1497 866L1418 693L1386 728Z" fill="#ccc3da" stroke="#ccc3da"></path><path d="M518 1022L620 979L595 899Z" fill="#d4cfed" stroke="#d4cfed"></path><path d="M595 899L620 979L646 936Z" fill="#ccc3da" stroke="#ccc3da"></path><path d="M804 0L632 0L798 24Z" fill="#d1cbe5" stroke="#d1cbe5"></path><path d="M1534 164L1507 178L1560 203Z" fill="#d0c9e3" stroke="#d0c9e3"></path><path d="M1560 203L1507 178L1444 296Z" fill="#d5d1ef" stroke="#d5d1ef"></path><path d="M356 591L397 651L431 639Z" fill="#d0c9e3" stroke="#d0c9e3"></path><path d="M431 639L401 777L504 672Z" fill="#cbc2d8" stroke="#cbc2d8"></path><path d="M539 838L495 857L595 899Z" fill="#d3ceea" stroke="#d3ceea"></path><path d="M356 591L431 639L441 470Z" fill="#ccc3da" stroke="#ccc3da"></path><path d="M455 829L495 857L539 792Z" fill="#cdc5dc" stroke="#cdc5dc"></path><path d="M1619 409L1602 386L1525 482Z" fill="#cfc8e1" stroke="#cfc8e1"></path><path d="M1011 1080L1209 1080L1195 1025Z" fill="#d5d1ef" stroke="#d5d1ef"></path><path d="M1195 1025L1272 1080L1302 921Z" fill="#cdc5dc" stroke="#cdc5dc"></path><path d="M401 777L539 792L504 672Z" fill="#d1cbe5" stroke="#d1cbe5"></path><path d="M640 1080L675 1080L620 979Z" fill="#cbc2d8" stroke="#cbc2d8"></path><path d="M322 407L441 470L321 348Z" fill="#cfc8e1" stroke="#cfc8e1"></path><path d="M1508 939L1497 866L1391 904Z" fill="#d1cbe5" stroke="#d1cbe5"></path><path d="M1391 904L1497 866L1372 889Z" fill="#cfc8e1" stroke="#cfc8e1"></path><path d="M1581 558L1619 409L1525 482Z" fill="#ccc3da" stroke="#ccc3da"></path><path d="M1560 203L1444 296L1530 325Z" fill="#d2cce8" stroke="#d2cce8"></path><path d="M1695 487L1619 409L1581 558Z" fill="#d5d1ef" stroke="#d5d1ef"></path><path d="M358 472L356 591L441 470Z" fill="#ccc3da" stroke="#ccc3da"></path><path d="M397 651L401 777L431 639Z" fill="#d1cbe5" stroke="#d1cbe5"></path><path d="M1560 203L1530 325L1616 299Z" fill="#cdc5dc" stroke="#cdc5dc"></path><path d="M1507 178L1414 16L1326 115Z" fill="#cfc8e1" stroke="#cfc8e1"></path><path d="M1209 1080L1248 1080L1195 1025Z" fill="#d2cce8" stroke="#d2cce8"></path><path d="M1482 0L1414 16L1507 178Z" fill="#d5d1ef" stroke="#d5d1ef"></path><path d="M1616 299L1530 325L1602 386Z" fill="#d1cbe5" stroke="#d1cbe5"></path><path d="M268 656L401 777L397 651Z" fill="#cec6df" stroke="#cec6df"></path><path d="M1248 1080L1272 1080L1195 1025Z" fill="#d2cce8" stroke="#d2cce8"></path><path d="M1619 409L1616 299L1602 386Z" fill="#cbc2d8" stroke="#cbc2d8"></path><path d="M640 1080L620 979L518 1022Z" fill="#cfc8e1" stroke="#cfc8e1"></path><path d="M620 979L675 1080L688 940Z" fill="#cdc5dc" stroke="#cdc5dc"></path><path d="M595 899L495 857L518 1022Z" fill="#cbc2d8" stroke="#cbc2d8"></path><path d="M632 0L540 0L548 154Z" fill="#d3ceea" stroke="#d3ceea"></path><path d="M441 470L516 343L321 348Z" fill="#cfc8e1" stroke="#cfc8e1"></path><path d="M516 343L535 209L376 198Z" fill="#d3ceea" stroke="#d3ceea"></path><path d="M358 472L311 505L356 591Z" fill="#d0c9e3" stroke="#d0c9e3"></path><path d="M1272 1080L1353 1058L1302 921Z" fill="#cbc2d8" stroke="#cbc2d8"></path><path d="M1497 866L1598 777L1556 702Z" fill="#cbc2d8" stroke="#cbc2d8"></path><path d="M1706 514L1695 487L1581 558Z" fill="#ccc3da" stroke="#ccc3da"></path><path d="M1599 824L1598 777L1497 866Z" fill="#cec6df" stroke="#cec6df"></path><path d="M1560 203L1567 150L1534 164Z" fill="#ccc3da" stroke="#ccc3da"></path><path d="M1534 164L1482 0L1507 178Z" fill="#d3ceea" stroke="#d3ceea"></path><path d="M1632 247L1567 150L1560 203Z" fill="#d4cfed" stroke="#d4cfed"></path><path d="M322 407L311 505L358 472Z" fill="#d1cbe5" stroke="#d1cbe5"></path><path d="M356 591L268 656L397 651Z" fill="#cfc8e1" stroke="#cfc8e1"></path><path d="M376 198L535 209L507 149Z" fill="#d3ceea" stroke="#d3ceea"></path><path d="M322 407L256 431L311 505Z" fill="#cec6df" stroke="#cec6df"></path><path d="M391 142L376 198L507 149Z" fill="#d3ceea" stroke="#d3ceea"></path><path d="M518 1022L495 857L397 1009Z" fill="#d5d1ef" stroke="#d5d1ef"></path><path d="M376 198L321 348L516 343Z" fill="#d4cfed" stroke="#d4cfed"></path><path d="M1394 1080L1508 939L1391 904Z" fill="#cfc8e1" stroke="#cfc8e1"></path><path d="M1772 290L1632 247L1616 299Z" fill="#cec6df" stroke="#cec6df"></path><path d="M1616 299L1632 247L1560 203Z" fill="#d3ceea" stroke="#d3ceea"></path><path d="M1737 421L1616 299L1619 409Z" fill="#cbc2d8" stroke="#cbc2d8"></path><path d="M437 41L391 142L507 149Z" fill="#d4cfed" stroke="#d4cfed"></path><path d="M376 198L294 204L321 348Z" fill="#d3ceea" stroke="#d3ceea"></path><path d="M1568 888L1599 824L1497 866Z" fill="#d3ceea" stroke="#d3ceea"></path><path d="M1706 514L1581 558L1757 643Z" fill="#d3ceea" stroke="#d3ceea"></path><path d="M255 504L298 596L311 505Z" fill="#d5d1ef" stroke="#d5d1ef"></path><path d="M311 505L298 596L356 591Z" fill="#d5d1ef" stroke="#d5d1ef"></path><path d="M1563 0L1482 0L1567 150Z" fill="#cdc5dc" stroke="#cdc5dc"></path><path d="M1567 150L1482 0L1534 164Z" fill="#d1cbe5" stroke="#d1cbe5"></path><path d="M1414 16L1482 0L1270 0Z" fill="#d4cfed" stroke="#d4cfed"></path><path d="M1508 939L1568 888L1497 866Z" fill="#d4cfed" stroke="#d4cfed"></path><path d="M397 1009L495 857L455 829Z" fill="#d5d1ef" stroke="#d5d1ef"></path><path d="M317 810L455 829L401 777Z" fill="#cfc8e1" stroke="#cfc8e1"></path><path d="M1581 558L1556 702L1757 643Z" fill="#d3ceea" stroke="#d3ceea"></path><path d="M284 156L358 164L391 142Z" fill="#cfc8e1" stroke="#cfc8e1"></path><path d="M391 142L358 164L376 198Z" fill="#cbc2d8" stroke="#cbc2d8"></path><path d="M540 0L437 41L507 149Z" fill="#d0c9e3" stroke="#d0c9e3"></path><path d="M1599 870L1626 811L1599 824Z" fill="#d5d1ef" stroke="#d5d1ef"></path><path d="M1599 824L1626 811L1598 777Z" fill="#cfc8e1" stroke="#cfc8e1"></path><path d="M1272 1080L1394 1080L1353 1058Z" fill="#d3ceea" stroke="#d3ceea"></path><path d="M1353 1058L1394 1080L1391 904Z" fill="#d2cce8" stroke="#d2cce8"></path><path d="M1591 1006L1599 870L1568 888Z" fill="#cfc8e1" stroke="#cfc8e1"></path><path d="M1591 1006L1568 888L1508 939Z" fill="#d4cfed" stroke="#d4cfed"></path><path d="M1568 888L1599 870L1599 824Z" fill="#cec6df" stroke="#cec6df"></path><path d="M1667 786L1556 702L1598 777Z" fill="#cdc5dc" stroke="#cdc5dc"></path><path d="M1695 487L1737 421L1619 409Z" fill="#d2cce8" stroke="#d2cce8"></path><path d="M540 0L451 0L437 41Z" fill="#d4cfed" stroke="#d4cfed"></path><path d="M284 156L311 185L358 164Z" fill="#cec6df" stroke="#cec6df"></path><path d="M256 431L255 504L311 505Z" fill="#cbc2d8" stroke="#cbc2d8"></path><path d="M256 431L322 407L315 403Z" fill="#cec6df" stroke="#cec6df"></path><path d="M256 431L315 403L321 348Z" fill="#d3ceea" stroke="#d3ceea"></path><path d="M208 341L256 431L321 348Z" fill="#d4cfed" stroke="#d4cfed"></path><path d="M451 0L444 0L437 41Z" fill="#cec6df" stroke="#cec6df"></path><path d="M157 629L268 656L298 596Z" fill="#d4cfed" stroke="#d4cfed"></path><path d="M298 596L268 656L356 591Z" fill="#d4cfed" stroke="#d4cfed"></path><path d="M1667 790L1667 786L1626 811Z" fill="#d5d1ef" stroke="#d5d1ef"></path><path d="M1626 811L1667 786L1598 777Z" fill="#cdc5dc" stroke="#cdc5dc"></path><path d="M268 656L317 810L401 777Z" fill="#ccc3da" stroke="#ccc3da"></path><path d="M1825 602L1728 481L1706 514Z" fill="#d0c9e3" stroke="#d0c9e3"></path><path d="M1706 514L1728 481L1695 487Z" fill="#d5d1ef" stroke="#d5d1ef"></path><path d="M1757 854L1667 790L1626 811Z" fill="#d0c9e3" stroke="#d0c9e3"></path><path d="M1667 786L1757 643L1556 702Z" fill="#d3ceea" stroke="#d3ceea"></path><path d="M284 156L391 142L297 0Z" fill="#d2cce8" stroke="#d2cce8"></path><path d="M358 164L311 185L376 198Z" fill="#ccc3da" stroke="#ccc3da"></path><path d="M284 156L294 204L311 185Z" fill="#cbc2d8" stroke="#cbc2d8"></path><path d="M311 185L294 204L376 198Z" fill="#d1cbe5" stroke="#d1cbe5"></path><path d="M1728 481L1737 421L1695 487Z" fill="#ccc3da" stroke="#ccc3da"></path><path d="M1644 85L1563 0L1567 150Z" fill="#cec6df" stroke="#cec6df"></path><path d="M1687 167L1567 150L1632 247Z" fill="#cec6df" stroke="#cec6df"></path><path d="M1772 290L1687 167L1632 247Z" fill="#d4cfed" stroke="#d4cfed"></path><path d="M1687 167L1644 85L1567 150Z" fill="#d0c9e3" stroke="#d0c9e3"></path><path d="M208 341L213 466L256 431Z" fill="#cfc8e1" stroke="#cfc8e1"></path><path d="M256 431L213 466L255 504Z" fill="#d5d1ef" stroke="#d5d1ef"></path><path d="M255 504L157 629L298 596Z" fill="#cbc2d8" stroke="#cbc2d8"></path><path d="M254 144L284 156L297 0Z" fill="#d2cce8" stroke="#d2cce8"></path><path d="M294 204L208 341L321 348Z" fill="#d1cbe5" stroke="#d1cbe5"></path><path d="M317 810L397 1009L455 829Z" fill="#d3ceea" stroke="#d3ceea"></path><path d="M518 1022L449 1080L640 1080Z" fill="#d3ceea" stroke="#d3ceea"></path><path d="M1799 793L1757 643L1667 786Z" fill="#ccc3da" stroke="#ccc3da"></path><path d="M1728 481L1897 472L1737 421Z" fill="#cec6df" stroke="#cec6df"></path><path d="M1587 1080L1591 1006L1508 939Z" fill="#cbc2d8" stroke="#cbc2d8"></path><path d="M1599 870L1757 854L1626 811Z" fill="#cbc2d8" stroke="#cbc2d8"></path><path d="M1898 704L1825 602L1757 643Z" fill="#cdc5dc" stroke="#cdc5dc"></path><path d="M135 294L208 341L134 224Z" fill="#d2cce8" stroke="#d2cce8"></path><path d="M397 1009L449 1080L518 1022Z" fill="#cbc2d8" stroke="#cbc2d8"></path><path d="M1737 421L1772 290L1616 299Z" fill="#d5d1ef" stroke="#d5d1ef"></path><path d="M1704 24L1687 0L1644 85Z" fill="#cbc2d8" stroke="#cbc2d8"></path><path d="M1800 266L1772 290L1920 344Z" fill="#d3ceea" stroke="#d3ceea"></path><path d="M297 0L391 142L437 41Z" fill="#d2cce8" stroke="#d2cce8"></path><path d="M284 156L254 144L294 204Z" fill="#cdc5dc" stroke="#cdc5dc"></path><path d="M317 810L244 947L397 1009Z" fill="#cdc5dc" stroke="#cdc5dc"></path><path d="M397 1009L315 1080L449 1080Z" fill="#cdc5dc" stroke="#cdc5dc"></path><path d="M205 775L241 825L317 810Z" fill="#d0c9e3" stroke="#d0c9e3"></path><path d="M205 775L317 810L268 656Z" fill="#cfc8e1" stroke="#cfc8e1"></path><path d="M157 629L205 775L268 656Z" fill="#d1cbe5" stroke="#d1cbe5"></path><path d="M157 629L255 504L213 466Z" fill="#d4cfed" stroke="#d4cfed"></path><path d="M1587 1080L1625 1035L1591 1006Z" fill="#d5d1ef" stroke="#d5d1ef"></path><path d="M1591 1006L1753 933L1599 870Z" fill="#cdc5dc" stroke="#cdc5dc"></path><path d="M1394 1080L1587 1080L1508 939Z" fill="#cbc2d8" stroke="#cbc2d8"></path><path d="M119 477L157 629L213 466Z" fill="#d4cfed" stroke="#d4cfed"></path><path d="M1920 344L1772 290L1737 421Z" fill="#d1cbe5" stroke="#d1cbe5"></path><path d="M1772 290L1800 266L1687 167Z" fill="#ccc3da" stroke="#ccc3da"></path><path d="M1799 793L1667 786L1667 790Z" fill="#d5d1ef" stroke="#d5d1ef"></path><path d="M1757 643L1825 602L1706 514Z" fill="#d5d1ef" stroke="#d5d1ef"></path><path d="M444 0L297 0L437 41Z" fill="#d0c9e3" stroke="#d0c9e3"></path><path d="M1753 933L1757 854L1599 870Z" fill="#cbc2d8" stroke="#cbc2d8"></path><path d="M1587 1080L1606 1080L1625 1035Z" fill="#d4cfed" stroke="#d4cfed"></path><path d="M1753 933L1773 845L1757 854Z" fill="#d3ceea" stroke="#d3ceea"></path><path d="M68 803L213 858L205 775Z" fill="#cfc8e1" stroke="#cfc8e1"></path><path d="M205 775L213 858L241 825Z" fill="#cec6df" stroke="#cec6df"></path><path d="M241 825L244 947L317 810Z" fill="#d0c9e3" stroke="#d0c9e3"></path><path d="M1704 24L1644 85L1687 167Z" fill="#cec6df" stroke="#cec6df"></path><path d="M1644 85L1687 0L1563 0Z" fill="#cfc8e1" stroke="#cfc8e1"></path><path d="M1735 0L1704 24L1749 0Z" fill="#d4cfed" stroke="#d4cfed"></path><path d="M1753 933L1591 1006L1625 1035Z" fill="#cdc5dc" stroke="#cdc5dc"></path><path d="M1757 854L1773 845L1667 790Z" fill="#d3ceea" stroke="#d3ceea"></path><path d="M1773 845L1799 793L1667 790Z" fill="#d3ceea" stroke="#d3ceea"></path><path d="M105 394L213 466L208 341Z" fill="#d5d1ef" stroke="#d5d1ef"></path><path d="M105 394L119 477L213 466Z" fill="#cdc5dc" stroke="#cdc5dc"></path><path d="M157 629L51 672L205 775Z" fill="#d2cce8" stroke="#d2cce8"></path><path d="M208 341L294 204L134 224Z" fill="#d0c9e3" stroke="#d0c9e3"></path><path d="M213 858L244 947L241 825Z" fill="#d2cce8" stroke="#d2cce8"></path><path d="M244 947L250 962L397 1009Z" fill="#d5d1ef" stroke="#d5d1ef"></path><path d="M163 163L294 204L254 144Z" fill="#d2cce8" stroke="#d2cce8"></path><path d="M147 985L244 970L244 947Z" fill="#cbc2d8" stroke="#cbc2d8"></path><path d="M244 947L244 970L250 962Z" fill="#cbc2d8" stroke="#cbc2d8"></path><path d="M250 962L315 1080L397 1009Z" fill="#d2cce8" stroke="#d2cce8"></path><path d="M1679 1080L1753 933L1625 1035Z" fill="#d4cfed" stroke="#d4cfed"></path><path d="M1869 808L1829 763L1799 793Z" fill="#d0c9e3" stroke="#d0c9e3"></path><path d="M1869 808L1799 793L1773 845Z" fill="#d1cbe5" stroke="#d1cbe5"></path><path d="M1799 793L1829 763L1757 643Z" fill="#ccc3da" stroke="#ccc3da"></path><path d="M135 294L105 394L208 341Z" fill="#d5d1ef" stroke="#d5d1ef"></path><path d="M181 100L163 163L254 144Z" fill="#ccc3da" stroke="#ccc3da"></path><path d="M0 450L75 470L105 394Z" fill="#cbc2d8" stroke="#cbc2d8"></path><path d="M304 1080L315 1080L250 962Z" fill="#ccc3da" stroke="#ccc3da"></path><path d="M163 163L134 224L294 204Z" fill="#cec6df" stroke="#cec6df"></path><path d="M1749 0L1704 24L1687 167Z" fill="#cec6df" stroke="#cec6df"></path><path d="M1704 24L1735 0L1687 0Z" fill="#d2cce8" stroke="#d2cce8"></path><path d="M297 0L181 100L254 144Z" fill="#d4cfed" stroke="#d4cfed"></path><path d="M163 163L128 190L134 224Z" fill="#ccc3da" stroke="#ccc3da"></path><path d="M244 970L304 1080L250 962Z" fill="#d1cbe5" stroke="#d1cbe5"></path><path d="M1606 1080L1679 1080L1625 1035Z" fill="#d4cfed" stroke="#d4cfed"></path><path d="M1858 17L1749 0L1687 167Z" fill="#cdc5dc" stroke="#cdc5dc"></path><path d="M1920 589L1897 472L1825 602Z" fill="#cfc8e1" stroke="#cfc8e1"></path><path d="M1825 602L1897 472L1728 481Z" fill="#d4cfed" stroke="#d4cfed"></path><path d="M1800 266L1862 234L1687 167Z" fill="#cfc8e1" stroke="#cfc8e1"></path><path d="M181 100L128 190L163 163Z" fill="#cec6df" stroke="#cec6df"></path><path d="M0 450L105 394L0 304Z" fill="#cec6df" stroke="#cec6df"></path><path d="M0 464L75 470L0 450Z" fill="#cfc8e1" stroke="#cfc8e1"></path><path d="M105 394L75 470L119 477Z" fill="#d3ceea" stroke="#d3ceea"></path><path d="M119 477L0 576L157 629Z" fill="#ccc3da" stroke="#ccc3da"></path><path d="M213 858L109 908L244 947Z" fill="#d5d1ef" stroke="#d5d1ef"></path><path d="M1920 303L1862 234L1800 266Z" fill="#cbc2d8" stroke="#cbc2d8"></path><path d="M1755 1080L1788 959L1753 933Z" fill="#ccc3da" stroke="#ccc3da"></path><path d="M1753 933L1788 959L1773 845Z" fill="#d2cce8" stroke="#d2cce8"></path><path d="M1920 589L1920 446L1897 472Z" fill="#ccc3da" stroke="#ccc3da"></path><path d="M1898 704L1757 643L1829 763Z" fill="#cec6df" stroke="#cec6df"></path><path d="M1897 472L1920 344L1737 421Z" fill="#cdc5dc" stroke="#cdc5dc"></path><path d="M1920 740L1898 704L1829 763Z" fill="#cbc2d8" stroke="#cbc2d8"></path><path d="M1788 959L1869 808L1773 845Z" fill="#cdc5dc" stroke="#cdc5dc"></path><path d="M1920 629L1920 589L1825 602Z" fill="#d3ceea" stroke="#d3ceea"></path><path d="M1920 691L1920 629L1898 704Z" fill="#cfc8e1" stroke="#cfc8e1"></path><path d="M1898 704L1920 629L1825 602Z" fill="#d0c9e3" stroke="#d0c9e3"></path><path d="M1920 446L1920 344L1897 472Z" fill="#d3ceea" stroke="#d3ceea"></path><path d="M1862 234L1899 153L1687 167Z" fill="#ccc3da" stroke="#ccc3da"></path><path d="M1920 344L1920 303L1800 266Z" fill="#d0c9e3" stroke="#d0c9e3"></path><path d="M0 576L51 672L157 629Z" fill="#d1cbe5" stroke="#d1cbe5"></path><path d="M244 970L135 1080L304 1080Z" fill="#d2cce8" stroke="#d2cce8"></path><path d="M1920 740L1920 691L1898 704Z" fill="#d4cfed" stroke="#d4cfed"></path><path d="M181 100L0 111L128 190Z" fill="#d1cbe5" stroke="#d1cbe5"></path><path d="M297 0L168 0L181 100Z" fill="#d5d1ef" stroke="#d5d1ef"></path><path d="M1920 946L1920 740L1869 808Z" fill="#cdc5dc" stroke="#cdc5dc"></path><path d="M1869 808L1920 740L1829 763Z" fill="#cbc2d8" stroke="#cbc2d8"></path><path d="M1679 1080L1755 1080L1753 933Z" fill="#d1cbe5" stroke="#d1cbe5"></path><path d="M1788 959L1920 946L1869 808Z" fill="#d4cfed" stroke="#d4cfed"></path><path d="M51 672L68 803L205 775Z" fill="#cbc2d8" stroke="#cbc2d8"></path><path d="M68 803L109 908L213 858Z" fill="#d2cce8" stroke="#d2cce8"></path><path d="M109 908L147 985L244 947Z" fill="#d5d1ef" stroke="#d5d1ef"></path><path d="M1920 196L1899 153L1862 234Z" fill="#d3ceea" stroke="#d3ceea"></path><path d="M1920 303L1920 196L1862 234Z" fill="#cfc8e1" stroke="#cfc8e1"></path><path d="M168 0L137 0L181 100Z" fill="#cfc8e1" stroke="#cfc8e1"></path><path d="M105 394L135 294L0 304Z" fill="#cdc5dc" stroke="#cdc5dc"></path><path d="M135 294L0 300L0 304Z" fill="#d2cce8" stroke="#d2cce8"></path><path d="M75 470L0 576L119 477Z" fill="#cfc8e1" stroke="#cfc8e1"></path><path d="M51 672L25 769L68 803Z" fill="#d2cce8" stroke="#d2cce8"></path><path d="M135 294L134 224L0 300Z" fill="#cbc2d8" stroke="#cbc2d8"></path><path d="M0 464L0 576L75 470Z" fill="#cdc5dc" stroke="#cdc5dc"></path><path d="M1899 153L1858 17L1687 167Z" fill="#d4cfed" stroke="#d4cfed"></path><path d="M1920 70L1858 17L1899 153Z" fill="#d1cbe5" stroke="#d1cbe5"></path><path d="M0 727L25 769L51 672Z" fill="#d0c9e3" stroke="#d0c9e3"></path><path d="M68 803L0 907L109 908Z" fill="#d2cce8" stroke="#d2cce8"></path><path d="M96 1080L135 1080L147 985Z" fill="#cdc5dc" stroke="#cdc5dc"></path><path d="M0 300L134 224L0 195Z" fill="#d5d1ef" stroke="#d5d1ef"></path><path d="M0 195L134 224L128 190Z" fill="#cdc5dc" stroke="#cdc5dc"></path><path d="M0 576L0 727L51 672Z" fill="#cdc5dc" stroke="#cdc5dc"></path><path d="M96 1080L147 985L0 1009Z" fill="#cdc5dc" stroke="#cdc5dc"></path><path d="M1920 196L1920 70L1899 153Z" fill="#d4cfed" stroke="#d4cfed"></path><path d="M0 111L0 195L128 190Z" fill="#cbc2d8" stroke="#cbc2d8"></path><path d="M0 818L68 803L25 769Z" fill="#d1cbe5" stroke="#d1cbe5"></path><path d="M147 985L135 1080L244 970Z" fill="#d4cfed" stroke="#d4cfed"></path><path d="M1920 1017L1920 946L1788 959Z" fill="#cdc5dc" stroke="#cdc5dc"></path><path d="M0 727L0 818L25 769Z" fill="#ccc3da" stroke="#ccc3da"></path><path d="M1920 70L1920 0L1858 17Z" fill="#d0c9e3" stroke="#d0c9e3"></path><path d="M1858 17L1920 0L1749 0Z" fill="#d3ceea" stroke="#d3ceea"></path><path d="M137 0L0 111L181 100Z" fill="#ccc3da" stroke="#ccc3da"></path><path d="M0 1009L147 985L109 908Z" fill="#d0c9e3" stroke="#d0c9e3"></path><path d="M1755 1080L1920 1017L1788 959Z" fill="#cbc2d8" stroke="#cbc2d8"></path><path d="M0 818L0 907L68 803Z" fill="#cdc5dc" stroke="#cdc5dc"></path><path d="M1755 1080L1920 1080L1920 1017Z" fill="#d0c9e3" stroke="#d0c9e3"></path><path d="M137 0L0 0L0 111Z" fill="#cec6df" stroke="#cec6df"></path><path d="M0 907L0 1009L109 908Z" fill="#d1cbe5" stroke="#d1cbe5"></path><path d="M0 1009L0 1080L96 1080Z" fill="#d0c9e3" stroke="#d0c9e3"></path></g></svg>